<?xml version="1.0" standalone="no"?>
<!DOCTYPE svg PUBLIC "-//W3C//DTD SVG 20010904//EN"
 "http://www.w3.org/TR/2001/REC-SVG-20010904/DTD/svg10.dtd">
<svg version="1.0" xmlns="http://www.w3.org/2000/svg"
 width="390.000000pt" height="261.000000pt" viewBox="0 0 390.000000 261.000000"
 preserveAspectRatio="xMidYMid meet">

<g transform="translate(0.000000,261.000000) scale(0.100000,-0.100000)"
fill="#000000" stroke="none">
<path d="M0 1305 l0 -1305 204 0 203 0 49 71 c27 39 63 95 81 123 18 28 48 66
67 83 43 39 73 93 53 93 -7 0 -22 -6 -33 -14 -11 -8 -31 -16 -44 -18 -14 -2
-24 -9 -22 -16 1 -6 -6 -12 -15 -12 -9 0 -24 -6 -32 -13 -22 -18 -102 -48
-112 -41 -5 3 -9 -2 -9 -10 0 -23 -37 -20 -50 4 -8 15 -8 21 2 24 81 25 116
41 193 85 158 91 273 112 386 73 45 -16 65 -18 105 -11 31 6 59 5 80 -1 18 -6
57 -12 87 -14 47 -2 59 -7 89 -38 20 -19 55 -45 79 -57 24 -12 52 -28 63 -36
19 -14 14 -35 -8 -35 -9 0 -13 -20 -14 -66 -2 -70 -6 -84 -25 -84 -21 0 -42
74 -46 164 -1 23 -4 26 -15 17 -10 -9 -15 -8 -20 4 -3 9 0 15 10 15 8 0 12 5
9 10 -3 6 -13 10 -21 10 -10 0 -14 -13 -14 -49 0 -39 -4 -50 -18 -53 -13 -4
-23 -22 -31 -54 -7 -27 -17 -54 -23 -61 -5 -7 -7 -26 -3 -43 4 -19 3 -30 -4
-30 -6 0 -11 -4 -11 -10 0 -5 9 -10 20 -10 14 0 23 11 31 40 17 55 33 67 47
35 7 -15 8 -25 2 -25 -6 0 -10 -11 -10 -25 l0 -25 545 0 545 0 0 49 c0 27 3
63 6 80 4 20 3 31 -5 31 -16 0 -51 -37 -51 -55 0 -25 -33 -19 -37 6 -3 18 86
119 105 119 6 0 12 6 12 13 1 19 56 -90 86 -170 l27 -73 693 0 694 0 0 1305 0
1305 -1950 0 -1950 0 0 -1305z m1144 1263 c3 -13 7 -59 9 -104 3 -70 9 -91 46
-167 41 -83 89 -144 140 -177 13 -8 30 -21 38 -29 8 -7 17 -11 20 -8 6 7 -47
56 -62 57 -5 1 -19 13 -30 27 -11 14 -27 33 -35 42 -23 25 -74 130 -67 137 4
4 10 -2 14 -13 29 -74 173 -233 212 -233 6 0 18 11 26 24 9 13 35 31 58 40 31
11 46 24 54 46 10 26 16 30 50 29 21 0 55 3 76 6 32 6 37 5 37 -13 0 -19 2
-18 65 6 75 30 87 48 50 79 -19 17 -22 23 -10 23 30 0 93 -39 128 -80 34 -41
35 -41 83 -33 60 10 67 30 29 79 -15 19 -24 38 -20 42 4 4 10 1 12 -6 8 -23
61 -42 115 -42 29 0 66 -7 82 -15 15 -8 35 -15 43 -15 9 0 12 -6 8 -19 -8 -26
7 -60 48 -105 34 -37 38 -38 66 -27 38 16 119 94 159 153 18 26 39 75 47 110
8 35 19 77 24 93 6 17 15 49 21 73 11 43 35 57 43 25 3 -10 6 -47 6 -83 1 -36
4 -79 7 -97 7 -39 -11 -122 -40 -181 -19 -41 -107 -142 -122 -142 -4 0 -15 -9
-25 -21 -10 -11 -22 -18 -28 -15 -18 11 -23 -15 -7 -33 17 -19 22 -51 7 -51
-5 0 -12 8 -15 18 -2 9 -2 0 1 -20 3 -23 1 -38 -5 -38 -6 0 -13 -8 -16 -17 -2
-10 -3 0 0 22 2 22 1 33 -2 25 -8 -18 -24 -30 -42 -30 -10 0 -9 5 2 22 25 35
21 52 -8 33 -15 -10 -25 -12 -28 -6 -2 7 -13 5 -32 -4 -15 -8 -35 -15 -42 -15
-17 0 -17 -2 -2 -35 14 -30 -6 -90 -22 -65 -7 12 -12 11 -28 -3 -24 -21 -85
-22 -164 -1 -33 8 -72 12 -87 9 -44 -9 -105 -75 -70 -75 6 0 8 -7 5 -17 -5
-12 3 -26 26 -45 38 -31 31 -47 -14 -30 -23 8 -35 9 -45 1 -9 -8 -13 -8 -13
-1 0 6 6 12 13 15 9 3 9 7 -2 20 -9 11 -12 31 -8 56 4 30 1 41 -10 46 -9 3
-18 3 -21 0 -3 -3 0 -5 6 -5 7 0 12 -16 12 -40 0 -48 -16 -53 -22 -7 -3 17 -8
39 -12 47 -4 10 5 27 23 48 24 26 38 32 69 32 22 0 45 6 51 14 9 11 -4 14 -75
20 -47 3 -90 4 -95 1 -5 -4 -18 -26 -29 -51 -21 -44 -36 -54 -57 -33 -8 8 -20
6 -43 -6 -26 -13 -42 -15 -93 -7 -40 6 -69 6 -81 0 -17 -9 -17 -12 10 -33 16
-13 49 -34 74 -47 25 -12 48 -27 51 -31 3 -5 44 -7 90 -6 84 4 109 -2 109 -24
0 -16 85 -94 112 -102 27 -9 62 29 54 59 -5 20 7 51 32 75 11 11 18 12 33 3
10 -7 28 -12 40 -12 42 0 140 43 182 80 l42 37 55 -11 c30 -6 72 -22 92 -34
41 -25 98 -104 98 -135 0 -20 0 -20 -22 0 -53 48 -94 54 -146 23 -18 -11 -39
-20 -47 -20 -16 0 -82 -42 -105 -68 -31 -34 -80 -111 -111 -176 -30 -64 -31
-69 -20 -123 6 -31 11 -73 11 -93 0 -51 42 -154 64 -158 11 -3 16 0 12 7 -14
22 37 10 73 -17 20 -15 50 -34 66 -41 54 -24 179 -51 238 -51 54 0 57 1 53 23
-13 62 -15 87 -7 87 10 0 8 51 -2 67 -12 18 -20 123 -10 123 5 0 14 -21 20
-47 6 -27 25 -95 42 -153 54 -179 57 -335 11 -460 -23 -60 -46 -97 -56 -88 -3
4 -8 34 -11 67 -3 34 -12 66 -19 72 -8 6 -14 18 -14 26 0 13 -20 14 -124 11
l-124 -3 -5 -40 c-8 -55 -53 -87 -64 -45 -4 16 -14 20 -44 20 -32 0 -39 3 -39
20 0 11 -4 20 -10 20 -5 0 -10 -4 -10 -10 0 -5 -7 -10 -15 -10 -8 0 -15 5 -15
10 0 6 5 10 11 10 5 0 7 5 4 11 -4 6 -14 8 -22 5 -15 -6 -87 26 -98 45 -11 17
4 24 25 11 11 -7 22 -12 24 -12 14 0 58 56 75 96 19 41 19 49 6 80 -8 19 -19
34 -25 34 -5 0 -33 -16 -60 -35 -27 -19 -54 -35 -58 -35 -5 0 -17 -9 -26 -19
-10 -11 -24 -17 -31 -15 -7 3 -15 -2 -18 -10 -4 -10 -19 -16 -42 -16 -27 0
-35 -4 -35 -17 -1 -17 -1 -17 -14 -1 -7 10 -24 18 -37 18 -23 -1 -23 -1 -5
-15 20 -15 16 -45 -7 -45 -8 0 -19 -11 -25 -24 -6 -14 -22 -26 -40 -29 -18 -4
-33 -14 -37 -27 -4 -12 -15 -20 -29 -20 -12 0 -31 -7 -42 -15 -10 -8 -33 -15
-50 -15 -17 0 -37 -7 -44 -15 -11 -13 -16 -13 -41 2 -16 10 -29 23 -29 30 0
21 -48 15 -72 -9 -19 -19 -32 -21 -131 -22 -106 -1 -110 -2 -118 -25 -6 -15
-14 -21 -24 -17 -24 9 -18 -9 20 -58 19 -25 29 -46 22 -46 -6 0 -28 25 -47 55
-19 30 -38 54 -42 55 -3 0 -10 15 -13 33 -4 17 -11 37 -15 42 -13 18 -30 103
-30 152 0 57 16 160 34 223 44 149 81 260 87 260 16 0 31 -32 25 -55 -3 -14
-9 -37 -12 -52 l-7 -28 20 25 c11 14 28 42 38 63 14 30 30 44 71 63 29 13 56
29 59 34 3 6 14 10 22 10 13 0 9 -8 -13 -31 -25 -26 -29 -38 -29 -89 0 -48 4
-63 24 -84 54 -57 114 -63 205 -20 41 20 51 45 43 107 -4 27 -2 36 4 26 5 -7
9 -30 9 -49 0 -52 17 -23 23 40 3 30 2 46 -2 36 -5 -12 -10 -15 -14 -9 -4 6 0
24 8 39 19 36 19 73 0 98 -8 11 -15 28 -15 38 0 16 -19 65 -41 110 -5 10 -9
27 -9 38 0 11 -6 20 -12 20 -7 0 -24 9 -38 20 -14 11 -37 20 -52 20 -14 0 -33
3 -42 6 -19 7 -21 30 -3 37 6 3 8 6 2 6 -5 1 -30 -19 -55 -44 -25 -24 -50 -44
-57 -45 -37 -1 -96 -96 -105 -170 -2 -14 -9 -25 -18 -25 -21 0 -24 72 -6 165
9 47 10 77 4 81 -13 8 -27 115 -16 131 12 19 10 25 -9 32 -10 3 -35 17 -56 30
-22 13 -48 21 -61 19 -13 -3 -26 0 -30 5 -4 6 3 8 16 5 21 -4 22 -4 5 10 -14
12 -27 12 -64 4 -42 -8 -49 -7 -58 9 -43 76 -168 150 -273 160 -37 4 -70 12
-74 18 -9 13 -294 15 -323 2 -11 -5 -31 -11 -44 -12 -48 -6 -58 -29 -48 -114
4 -38 42 -120 56 -120 4 0 13 -11 19 -25 10 -21 17 -24 37 -19 29 7 35 -15 9
-40 -8 -9 -12 -20 -9 -26 9 -15 25 -2 25 21 0 10 5 19 10 19 6 0 10 -16 10
-35 0 -25 4 -35 16 -35 8 0 13 -4 10 -9 -3 -5 -15 -7 -27 -4 -19 5 -20 4 -7
-18 7 -13 15 -26 18 -29 3 -3 17 -30 32 -61 51 -105 186 -212 213 -168 4 6 -1
17 -11 24 -18 13 -18 14 -1 15 24 0 22 20 -3 20 -35 0 -24 35 15 50 20 8 41
20 47 27 14 18 92 16 128 -2 17 -9 30 -12 30 -7 0 5 26 -4 58 -20 59 -29 144
-48 220 -48 23 0 42 -4 42 -10 0 -5 -4 -10 -10 -10 -5 0 -24 -15 -42 -32 -18
-18 -44 -39 -58 -47 -71 -40 -238 -54 -307 -26 -29 12 -38 13 -45 3 -6 -10
-10 -10 -18 2 -6 10 -10 11 -10 3 0 -7 -9 -13 -20 -13 -11 0 -20 7 -20 15 0 8
8 15 17 15 13 0 14 3 5 12 -8 8 -15 8 -26 -1 -18 -15 -59 4 -97 43 -13 14 -29
26 -35 26 -6 0 -17 11 -24 25 -7 14 -17 25 -22 25 -4 0 -8 6 -8 13 0 6 -14 26
-30 44 -17 18 -30 34 -30 36 0 3 -17 34 -38 68 -120 198 -156 276 -155 335 1
110 33 126 273 132 288 7 404 -24 585 -158 120 -89 154 -110 195 -125 43 -15
85 -52 67 -58 -6 -2 -5 -6 4 -9 10 -4 33 9 61 32 47 41 143 76 177 65 17 -5
20 -2 18 22 -2 26 1 28 32 26 19 -1 30 2 24 5 -6 4 -15 21 -19 37 -10 45 -14
48 -35 24 l-19 -22 -9 26 c-15 40 -28 40 -57 2 -20 -27 -34 -35 -58 -35 -31
-1 -31 -1 -7 -14 20 -11 21 -14 6 -19 -24 -10 -52 8 -59 39 -8 30 -2 39 22 39
11 0 18 10 20 28 3 25 0 27 -30 27 -35 0 -59 13 -117 63 -42 36 -112 123 -105
130 3 3 -2 17 -11 31 -10 15 -14 34 -10 48 5 18 4 20 -4 8 -8 -11 -11 0 -12
45 -1 49 -3 54 -9 30 -4 -16 -8 -59 -8 -95 -1 -58 3 -85 25 -195 3 -16 12 -35
19 -43 8 -7 14 -21 14 -30 0 -26 -25 15 -52 84 -41 107 -25 343 32 454 23 45
37 51 44 18z m1630 -485 c-32 -63 -41 -64 -19 -2 9 24 14 56 11 71 -3 15 -2
29 3 32 4 3 9 33 10 67 3 102 16 91 19 -15 3 -91 1 -104 -24 -153z m-27 33
c-10 -19 -11 -20 -15 -3 -2 10 -1 26 3 35 5 14 8 14 15 2 5 -8 4 -22 -3 -34z
m831 -38 c29 -5 65 -20 80 -33 25 -21 27 -29 25 -92 -1 -77 -16 -112 -115
-277 -89 -148 -163 -250 -212 -293 -120 -105 -295 -153 -436 -118 -79 19 -91
31 -14 15 88 -19 231 -4 296 31 10 5 24 9 32 9 7 0 19 7 26 15 7 8 16 12 21 9
5 -3 9 -1 9 4 0 19 -14 20 -48 1 -86 -49 -141 -62 -230 -55 -47 3 -90 10 -96
15 -18 14 -48 22 -41 11 11 -18 -15 -10 -32 10 -10 11 -23 20 -29 20 -6 0 -14
9 -17 20 -3 11 -12 20 -21 20 -9 0 -16 4 -16 9 0 21 32 31 96 30 72 -2 184 18
184 33 0 4 6 8 13 8 24 0 158 123 199 183 10 14 28 27 39 29 12 2 27 12 33 23
6 11 17 24 24 28 6 4 12 13 12 20 0 12 19 23 110 69 24 13 53 31 63 41 12 13
28 17 45 14 17 -3 30 1 38 11 10 13 10 9 1 -20 -7 -21 -18 -38 -26 -38 -7 0
-11 -6 -8 -14 3 -9 -4 -21 -19 -30 -24 -16 -33 -46 -14 -46 6 0 10 4 10 9 0 5
9 13 20 16 11 3 20 15 20 26 0 10 4 19 9 19 17 0 42 91 45 159 1 44 -29 67
-108 82 -65 12 -292 4 -310 -10 -6 -5 -36 -12 -68 -16 -31 -4 -78 -18 -105
-30 l-48 -23 35 -1 c46 -2 20 -21 -28 -21 -27 0 -42 -9 -78 -47 -24 -27 -44
-52 -44 -57 0 -5 -8 -16 -17 -25 -21 -19 -41 -49 -49 -73 -4 -10 -13 -18 -20
-18 -8 0 -14 -7 -14 -15 0 -20 -13 -19 -26 3 -9 14 -8 26 7 52 10 19 19 28 19
20 0 -8 8 1 16 20 8 19 14 47 11 63 -2 15 1 27 6 27 6 0 8 3 4 6 -3 3 -41 -17
-83 -45 -68 -44 -104 -61 -104 -47 0 2 15 11 33 20 44 22 65 37 96 65 75 67
213 140 319 166 128 33 347 39 480 13z m-2399 -149 c33 -36 42 -49 34 -49 -15
0 -63 61 -62 79 0 12 2 12 6 2 3 -7 13 -22 22 -32z m716 -39 c-3 -5 -11 -10
-16 -10 -6 0 -7 5 -4 10 3 6 11 10 16 10 6 0 7 -4 4 -10z m-545 -19 c0 -14
-45 -61 -58 -61 -16 0 -1 39 21 55 25 17 37 19 37 6z m410 -41 c0 -5 -4 -10
-10 -10 -5 0 -10 5 -10 10 0 6 5 10 10 10 6 0 10 -4 10 -10z m-148 -21 c-14
-5 -30 -5 -40 0 -12 7 -5 9 24 9 33 0 36 -2 16 -9z m-1294 -11 c-3 -7 -11 -13
-18 -13 -7 0 -15 6 -17 13 -3 7 4 12 17 12 13 0 20 -5 18 -12z m1731 -15 c0
-5 -13 -18 -30 -31 -24 -20 -28 -21 -22 -5 10 27 54 57 52 36z m-1139 -37 c0
-2 -9 -6 -20 -9 -11 -3 -18 -1 -14 4 5 9 34 13 34 5z m-425 -35 c-3 -6 -11
-11 -16 -11 -5 0 -4 6 3 14 14 16 24 13 13 -3z m450 -21 c-3 -5 -11 -10 -16
-10 -6 0 -7 5 -4 10 3 6 11 10 16 10 6 0 7 -4 4 -10z m-455 -10 c0 -5 -8 -10
-17 -10 -10 0 -28 -3 -40 -6 -13 -4 -23 -2 -23 4 0 9 17 14 68 21 6 0 12 -3
12 -9z m410 -20 c0 -5 -5 -10 -11 -10 -5 0 -7 5 -4 10 3 6 8 10 11 10 2 0 4
-4 4 -10z m-375 -19 c-6 -5 -21 -12 -34 -16 -21 -6 -22 -5 -10 8 8 9 23 16 34
17 11 0 15 -3 10 -9z m2122 -53 c-3 -7 -5 -2 -5 12 0 14 2 19 5 13 2 -7 2 -19
0 -25z m-2080 -10 c-3 -7 -5 -2 -5 12 0 14 2 19 5 13 2 -7 2 -19 0 -25z m-160
-10 c-3 -8 -6 -5 -6 6 -1 11 2 17 5 13 3 -3 4 -12 1 -19z m1090 -150 c33 -14
95 -77 88 -88 -3 -5 -1 -10 4 -12 4 -1 12 -14 16 -27 5 -18 -2 -14 -31 19 -22
24 -53 49 -70 56 -40 17 -144 20 -171 6 -30 -16 -48 -16 -31 1 46 44 73 57
119 57 26 0 61 -5 76 -12z m-932 -19 c11 -17 2 -18 -19 -3 -17 12 -17 14 -4
14 9 0 20 -5 23 -11z m1961 2 c-3 -4 -27 -11 -54 -13 -27 -3 -63 -12 -82 -21
-39 -20 -43 -21 -34 -6 12 20 89 49 132 49 24 0 41 -4 38 -9z m-1386 -91 c11
-8 5 -9 -20 -5 -19 3 -36 8 -39 11 -9 9 45 3 59 -6z m-112 -15 c-38 -21 -135
-45 -180 -45 -52 0 -168 23 -168 33 0 4 24 4 53 0 79 -12 217 -6 262 11 51 19
68 20 33 1z m186 -19 c-6 -25 -7 -25 -20 -9 -18 24 -17 34 1 27 8 -4 15 -1 15
7 0 7 2 10 5 7 4 -3 3 -18 -1 -32z m264 -13 c2 -8 -6 -13 -22 -13 -25 0 -33
10 -19 24 10 10 36 3 41 -11z m892 2 c0 -8 -7 -15 -15 -15 -8 0 -15 7 -15 15
0 8 7 15 15 15 8 0 15 -7 15 -15z m213 -16 c40 0 49 -128 12 -156 -25 -17 -35
-8 -35 34 0 27 -4 34 -14 30 -16 -6 -21 4 -32 67 -7 39 -7 39 22 32 16 -4 37
-7 47 -7z m81 -146 c18 -58 8 -93 -25 -93 -27 0 -30 25 -11 95 9 36 18 62 18
58 1 -4 9 -32 18 -60z m-1094 12 c-7 -8 -19 -15 -26 -15 -8 0 -13 -6 -11 -12
2 -15 -42 -13 -57 2 -7 7 0 10 20 10 16 1 40 7 54 15 32 18 35 18 20 0z m956
-22 c-11 -11 -17 4 -9 23 7 18 8 18 11 1 2 -10 1 -21 -2 -24z m-86 13 c0 -3
-4 -8 -10 -11 -5 -3 -10 -1 -10 4 0 6 5 11 10 11 6 0 10 -2 10 -4z m-30 -16
c0 -5 -11 -10 -25 -10 -14 0 -25 5 -25 10 0 6 11 10 25 10 14 0 25 -4 25 -10z
m80 -20 c0 -5 -5 -10 -11 -10 -5 0 -7 5 -4 10 3 6 8 10 11 10 2 0 4 -4 4 -10z
m-106 -30 c-7 -7 -19 -7 -35 -1 -23 9 -22 10 11 10 23 1 31 -2 24 -9z m296
-545 c0 -8 -4 -15 -10 -15 -5 0 -10 7 -10 15 0 8 5 15 10 15 6 0 10 -7 10 -15z
m1 -48 c-10 -9 -11 -8 -5 6 3 10 9 15 12 12 3 -3 0 -11 -7 -18z m-983 -47 c17
-16 33 -30 36 -30 3 0 21 -11 40 -24 20 -13 52 -27 72 -31 20 -3 43 -13 51
-20 12 -12 10 -15 -14 -21 -15 -3 -44 -10 -63 -14 -19 -5 -58 -11 -86 -15 -47
-6 -53 -4 -72 19 -11 14 -26 26 -33 26 -15 1 -49 60 -49 85 0 18 48 55 71 55
9 0 31 -13 47 -30z m578 -29 c-3 -14 -7 -42 -8 -61 -3 -51 -22 -66 -48 -40
-11 11 -25 20 -31 20 -6 0 -8 9 -5 20 3 11 8 28 11 38 3 11 17 25 30 32 14 7
25 20 25 28 0 12 3 12 15 2 10 -9 14 -23 11 -39z m-323 12 c75 -3 137 -9 137
-13 0 -9 -105 -20 -189 -19 -71 0 -174 32 -136 42 11 2 27 3 35 0 8 -3 77 -7
153 -10z m-443 -172 c29 -27 41 -45 36 -56 -5 -14 -11 -11 -33 17 -15 18 -36
40 -45 49 -10 9 -18 19 -18 23 0 15 21 3 60 -33z"/>
<path d="M1082 2430 c0 -14 2 -19 5 -12 2 6 2 18 0 25 -3 6 -5 1 -5 -13z"/>
<path d="M1662 2151 c9 -15 9 -23 -2 -35 -14 -18 -11 -29 7 -18 22 14 20 72
-2 72 -12 0 -13 -3 -3 -19z"/>
<path d="M1800 2131 c0 -6 10 -17 22 -26 26 -17 37 -3 18 20 -14 17 -40 20
-40 6z"/>
<path d="M1935 2121 c-4 -7 3 -11 17 -11 13 0 34 -3 48 -6 17 -5 22 -3 15 4
-15 15 -72 25 -80 13z"/>
<path d="M2220 2122 c0 -9 69 -36 76 -29 7 7 -19 24 -48 31 -16 3 -28 3 -28
-2z"/>
<path d="M1511 2104 c0 -11 3 -14 6 -6 3 7 2 16 -1 19 -3 4 -6 -2 -5 -13z"/>
<path d="M2311 2064 c0 -11 3 -14 6 -6 3 7 2 16 -1 19 -3 4 -6 -2 -5 -13z"/>
<path d="M2190 2063 c-40 -7 -48 -23 -12 -23 18 0 32 5 32 10 0 14 28 12 33
-2 2 -7 8 -9 13 -5 5 4 2 12 -6 17 -16 10 -19 10 -60 3z"/>
<path d="M1745 2022 c-28 -6 -76 -42 -70 -52 3 -5 -1 -11 -7 -13 -7 -3 -1 -6
14 -6 15 -1 30 4 33 9 10 15 35 12 35 -5 0 -8 -7 -15 -15 -15 -8 0 -15 -4 -15
-10 0 -5 -21 -10 -47 -11 -36 0 -43 -3 -28 -9 35 -14 115 11 115 36 0 19 21
28 31 13 12 -20 18 -8 12 24 -6 31 -28 46 -58 39z"/>
<path d="M1937 2004 c-17 -17 -4 -25 36 -22 23 2 42 8 42 13 0 12 -67 19 -78
9z"/>
<path d="M2191 1991 c-25 -25 -26 -35 -5 -55 26 -27 46 -20 40 14 -3 22 0 30
11 30 19 0 11 24 -10 28 -9 2 -25 -6 -36 -17z"/>
<path d="M2388 1993 c-21 -5 -24 -23 -4 -23 8 0 16 7 20 15 3 8 4 14 3 14 -1
-1 -10 -3 -19 -6z"/>
<path d="M2278 1964 c12 -8 22 -23 23 -32 0 -10 3 -12 5 -5 8 18 -15 53 -34
53 -13 0 -12 -3 6 -16z"/>
<path d="M2248 1928 c-2 -19 -10 -23 -38 -24 -21 0 -34 -6 -32 -12 4 -21 -15
-13 -32 13 -18 28 -38 32 -58 12 -7 -8 -19 -12 -26 -9 -9 3 -12 -3 -10 -14 6
-35 204 -69 215 -37 3 8 -7 11 -34 8 -21 -2 -29 -2 -18 1 32 9 55 35 55 61 0
30 -18 30 -22 1z"/>
<path d="M1762 1915 c-12 -14 -33 -25 -46 -25 -14 0 -28 -5 -31 -11 -4 -6 -22
-8 -46 -4 -23 4 -39 3 -39 -3 0 -5 16 -12 36 -15 41 -7 94 1 94 14 0 5 6 9 14
9 14 0 51 48 44 56 -3 2 -14 -7 -26 -21z"/>
<path d="M1940 1843 c-24 -22 -25 -22 -3 -23 12 0 23 5 25 10 2 6 21 17 43 25
l40 14 -40 -2 c-24 -1 -49 -11 -65 -24z"/>
<path d="M1309 1649 c-34 -37 -63 -88 -55 -97 3 -3 6 -1 6 5 0 14 55 73 68 73
7 0 12 5 12 10 0 6 16 10 36 10 45 0 41 24 -5 28 -25 3 -38 -3 -62 -29z"/>
<path d="M1236 1505 c-3 -8 -1 -15 4 -15 6 0 10 7 10 15 0 8 -2 15 -4 15 -2 0
-6 -7 -10 -15z"/>
<path d="M880 1380 c0 -5 6 -10 14 -10 8 0 18 5 21 10 3 6 -3 10 -14 10 -12 0
-21 -4 -21 -10z"/>
<path d="M880 1320 c0 -5 5 -10 11 -10 5 0 7 5 4 10 -3 6 -8 10 -11 10 -2 0
-4 -4 -4 -10z"/>
<path d="M1196 1087 c3 -10 9 -15 12 -12 3 3 0 11 -7 18 -10 9 -11 8 -5 -6z"/>
<path d="M1253 1031 c2 -28 7 -54 10 -58 13 -12 89 -20 125 -12 87 18 125 30
139 44 12 13 8 14 -37 12 -53 -3 -133 12 -147 27 -4 5 0 6 9 3 10 -3 20 -1 24
4 4 7 -10 10 -43 8 -33 -3 -56 1 -67 10 -16 13 -17 10 -13 -38z"/>
<path d="M1691 864 c-8 -19 -9 -35 0 -64 14 -45 55 -93 75 -86 7 3 16 1 19 -4
4 -6 16 -3 30 6 21 14 25 23 24 68 -1 48 -4 52 -36 69 -18 9 -43 17 -53 17
-11 0 -20 5 -20 10 0 20 -27 9 -39 -16z"/>
<path d="M2633 875 c0 -8 4 -15 9 -15 4 0 8 4 8 9 0 6 -4 12 -8 15 -5 3 -9 -1
-9 -9z"/>
<path d="M2640 825 c0 -23 -3 -25 -37 -23 -21 1 -41 6 -44 11 -4 6 -15 7 -25
3 -17 -7 -17 -9 6 -26 14 -11 37 -20 53 -21 15 -1 32 -2 39 -3 7 -1 18 18 24
42 11 35 11 42 -2 42 -8 0 -14 -10 -14 -25z"/>
<path d="M1160 565 c0 -8 5 -15 10 -15 6 0 10 7 10 15 0 8 -4 15 -10 15 -5 0
-10 -7 -10 -15z"/>
<path d="M3545 1719 c-11 -17 1 -21 15 -4 8 9 8 15 2 15 -6 0 -14 -5 -17 -11z"/>
<path d="M3506 1665 c-16 -12 -17 -15 -4 -15 9 0 18 7 22 15 7 18 6 18 -18 0z"/>
<path d="M3361 1656 c12 -10 79 -16 79 -6 0 5 -19 10 -42 10 -23 0 -39 -2 -37
-4z"/>
<path d="M3444 1623 c-5 -17 -3 -28 4 -31 30 -10 7 -19 -40 -16 -29 1 -43 1
-31 -2 12 -3 27 -12 33 -19 10 -12 7 -17 -16 -25 -20 -8 -29 -8 -34 0 -5 9
-18 9 -49 0 -69 -18 -65 -60 6 -60 33 0 51 -14 33 -25 -14 -9 -12 -25 3 -25
21 0 86 78 122 148 19 36 35 68 35 70 0 2 -9 0 -20 -3 -11 -4 -20 -2 -20 4 0
22 -20 10 -26 -16z"/>
<path d="M3325 1400 c-3 -5 -2 -10 4 -10 5 0 13 5 16 10 3 6 2 10 -4 10 -5 0
-13 -4 -16 -10z"/>
<path d="M2950 1380 c20 -13 90 -13 90 0 0 6 -24 10 -52 10 -38 0 -49 -3 -38
-10z"/>
<path d="M3298 1373 c7 -3 16 -2 19 1 4 3 -2 6 -13 5 -11 0 -14 -3 -6 -6z"/>
<path d="M2561 1104 c0 -11 3 -14 6 -6 3 7 2 16 -1 19 -3 4 -6 -2 -5 -13z"/>
<path d="M597 163 c-4 -3 -7 -13 -7 -22 1 -13 3 -13 11 2 11 19 8 33 -4 20z"/>
<path d="M577 79 c-26 -68 -23 -79 19 -79 30 0 34 3 29 19 -3 10 -11 38 -18
62 l-13 43 -17 -45z"/>
<path d="M720 106 c0 -7 -9 -16 -20 -19 -16 -4 -20 -14 -20 -46 0 -34 3 -41
19 -41 20 0 51 25 51 41 0 5 11 9 25 9 38 0 30 27 -15 50 -31 16 -40 17 -40 6z"/>
</g>
</svg>
